G04 #@! TF.FileFunction,Other,User*
%FSLAX46Y46*%
G04 Gerber Fmt 4.6, Leading zero omitted, Abs format (unit mm)*
G04 Created by KiCad (PCBNEW 4.0.3-stable) date 10/17/17 23:13:47*
%MOMM*%
%LPD*%
G01*
G04 APERTURE LIST*
%ADD10C,0.100000*%
%ADD11C,0.050000*%
G04 APERTURE END LIST*
D10*
D11*
X156180000Y-132900000D02*
X156180000Y-121600000D01*
X156180000Y-121600000D02*
X172820000Y-121600000D01*
X172820000Y-121600000D02*
X172820000Y-132900000D01*
X172820000Y-132900000D02*
X156180000Y-132900000D01*
X148820000Y-121600000D02*
X148820000Y-132900000D01*
X148820000Y-132900000D02*
X132180000Y-132900000D01*
X132180000Y-132900000D02*
X132180000Y-121600000D01*
X132180000Y-121600000D02*
X148820000Y-121600000D01*
X144300000Y-116500000D02*
X144300000Y-121500000D01*
X144300000Y-121500000D02*
X132200000Y-121500000D01*
X132200000Y-121500000D02*
X132200000Y-116500000D01*
X132200000Y-116500000D02*
X144300000Y-116500000D01*
X144300000Y-111000000D02*
X144300000Y-116000000D01*
X144300000Y-116000000D02*
X132200000Y-116000000D01*
X132200000Y-116000000D02*
X132200000Y-111000000D01*
X132200000Y-111000000D02*
X144300000Y-111000000D01*
X160700000Y-121500000D02*
X160700000Y-116500000D01*
X160700000Y-116500000D02*
X172800000Y-116500000D01*
X172800000Y-116500000D02*
X172800000Y-121500000D01*
X172800000Y-121500000D02*
X160700000Y-121500000D01*
X158060000Y-116900000D02*
X146950000Y-116900000D01*
X158060000Y-116900000D02*
X158060000Y-120600000D01*
X146950000Y-120600000D02*
X146950000Y-116900000D01*
X146950000Y-120600000D02*
X158060000Y-120600000D01*
X149150000Y-120900000D02*
X149150000Y-134700000D01*
X149150000Y-134700000D02*
X155850000Y-134700000D01*
X155850000Y-134700000D02*
X155850000Y-120900000D01*
X155850000Y-120900000D02*
X149150000Y-120900000D01*
M02*
