G04 #@! TF.FileFunction,Legend,Top*
%FSLAX46Y46*%
G04 Gerber Fmt 4.6, Leading zero omitted, Abs format (unit mm)*
G04 Created by KiCad (PCBNEW 4.0.3-stable) date 10/18/17 08:43:59*
%MOMM*%
%LPD*%
G01*
G04 APERTURE LIST*
%ADD10C,0.100000*%
%ADD11C,0.300000*%
%ADD12C,0.250000*%
G04 APERTURE END LIST*
D10*
D11*
X198521428Y-131164286D02*
X198949999Y-131307143D01*
X199664285Y-131307143D01*
X199949999Y-131164286D01*
X200092856Y-131021429D01*
X200235713Y-130735714D01*
X200235713Y-130450000D01*
X200092856Y-130164286D01*
X199949999Y-130021429D01*
X199664285Y-129878571D01*
X199092856Y-129735714D01*
X198807142Y-129592857D01*
X198664285Y-129450000D01*
X198521428Y-129164286D01*
X198521428Y-128878571D01*
X198664285Y-128592857D01*
X198807142Y-128450000D01*
X199092856Y-128307143D01*
X199807142Y-128307143D01*
X200235713Y-128450000D01*
X201521428Y-131307143D02*
X201521428Y-129307143D01*
X201521428Y-129592857D02*
X201664285Y-129450000D01*
X201949999Y-129307143D01*
X202378571Y-129307143D01*
X202664285Y-129450000D01*
X202807142Y-129735714D01*
X202807142Y-131307143D01*
X202807142Y-129735714D02*
X202949999Y-129450000D01*
X203235713Y-129307143D01*
X203664285Y-129307143D01*
X203949999Y-129450000D01*
X204092856Y-129735714D01*
X204092856Y-131307143D01*
X206807142Y-131307143D02*
X206807142Y-129735714D01*
X206664285Y-129450000D01*
X206378571Y-129307143D01*
X205807142Y-129307143D01*
X205521428Y-129450000D01*
X206807142Y-131164286D02*
X206521428Y-131307143D01*
X205807142Y-131307143D01*
X205521428Y-131164286D01*
X205378571Y-130878571D01*
X205378571Y-130592857D01*
X205521428Y-130307143D01*
X205807142Y-130164286D01*
X206521428Y-130164286D01*
X206807142Y-130021429D01*
X208235714Y-131307143D02*
X208235714Y-129307143D01*
X208235714Y-129878571D02*
X208378571Y-129592857D01*
X208521428Y-129450000D01*
X208807142Y-129307143D01*
X209092857Y-129307143D01*
X209664285Y-129307143D02*
X210807142Y-129307143D01*
X210092857Y-128307143D02*
X210092857Y-130878571D01*
X210235714Y-131164286D01*
X210521428Y-131307143D01*
X210807142Y-131307143D01*
X211664286Y-131164286D02*
X212092857Y-131307143D01*
X212807143Y-131307143D01*
X213092857Y-131164286D01*
X213235714Y-131021429D01*
X213378571Y-130735714D01*
X213378571Y-130450000D01*
X213235714Y-130164286D01*
X213092857Y-130021429D01*
X212807143Y-129878571D01*
X212235714Y-129735714D01*
X211950000Y-129592857D01*
X211807143Y-129450000D01*
X211664286Y-129164286D01*
X211664286Y-128878571D01*
X211807143Y-128592857D01*
X211950000Y-128450000D01*
X212235714Y-128307143D01*
X212950000Y-128307143D01*
X213378571Y-128450000D01*
X215950000Y-129307143D02*
X215950000Y-131307143D01*
X214664286Y-129307143D02*
X214664286Y-130878571D01*
X214807143Y-131164286D01*
X215092857Y-131307143D01*
X215521429Y-131307143D01*
X215807143Y-131164286D01*
X215950000Y-131021429D01*
X217378572Y-129307143D02*
X217378572Y-132307143D01*
X217378572Y-129450000D02*
X217664286Y-129307143D01*
X218235715Y-129307143D01*
X218521429Y-129450000D01*
X218664286Y-129592857D01*
X218807143Y-129878571D01*
X218807143Y-130735714D01*
X218664286Y-131021429D01*
X218521429Y-131164286D01*
X218235715Y-131307143D01*
X217664286Y-131307143D01*
X217378572Y-131164286D01*
X220092858Y-129307143D02*
X220092858Y-132307143D01*
X220092858Y-129450000D02*
X220378572Y-129307143D01*
X220950001Y-129307143D01*
X221235715Y-129450000D01*
X221378572Y-129592857D01*
X221521429Y-129878571D01*
X221521429Y-130735714D01*
X221378572Y-131021429D01*
X221235715Y-131164286D01*
X220950001Y-131307143D01*
X220378572Y-131307143D01*
X220092858Y-131164286D01*
X223235715Y-131307143D02*
X222950001Y-131164286D01*
X222807144Y-130878571D01*
X222807144Y-128307143D01*
X224092858Y-129307143D02*
X224807144Y-131307143D01*
X225521430Y-129307143D02*
X224807144Y-131307143D01*
X224521430Y-132021429D01*
X224378573Y-132164286D01*
X224092858Y-132307143D01*
X227313095Y-131354762D02*
X227563095Y-129354762D01*
X228051190Y-130783333D01*
X228896429Y-129354762D01*
X228646429Y-131354762D01*
X229598809Y-131354762D02*
X229765475Y-130021429D01*
X229848809Y-129354762D02*
X229741666Y-129450000D01*
X229824999Y-129545238D01*
X229932143Y-129450000D01*
X229848809Y-129354762D01*
X229824999Y-129545238D01*
X230717856Y-130021429D02*
X230551190Y-131354762D01*
X230694047Y-130211905D02*
X230801191Y-130116667D01*
X231003571Y-130021429D01*
X231289285Y-130021429D01*
X231467857Y-130116667D01*
X231539285Y-130307143D01*
X231408333Y-131354762D01*
X232360714Y-131354762D02*
X232527380Y-130021429D01*
X232610714Y-129354762D02*
X232503571Y-129450000D01*
X232586904Y-129545238D01*
X232694048Y-129450000D01*
X232610714Y-129354762D01*
X232586904Y-129545238D01*
D12*
X218545237Y-143902381D02*
X219116666Y-143902381D01*
X218830951Y-144902381D02*
X218830951Y-143902381D01*
X219449999Y-144902381D02*
X219449999Y-143902381D01*
X219878571Y-144902381D02*
X219878571Y-144378571D01*
X219830952Y-144283333D01*
X219735714Y-144235714D01*
X219592856Y-144235714D01*
X219497618Y-144283333D01*
X219449999Y-144330952D01*
X220497618Y-144902381D02*
X220402380Y-144854762D01*
X220354761Y-144807143D01*
X220307142Y-144711905D01*
X220307142Y-144426190D01*
X220354761Y-144330952D01*
X220402380Y-144283333D01*
X220497618Y-144235714D01*
X220640476Y-144235714D01*
X220735714Y-144283333D01*
X220783333Y-144330952D01*
X220830952Y-144426190D01*
X220830952Y-144711905D01*
X220783333Y-144807143D01*
X220735714Y-144854762D01*
X220640476Y-144902381D01*
X220497618Y-144902381D01*
X221259523Y-144902381D02*
X221259523Y-144235714D01*
X221259523Y-144330952D02*
X221307142Y-144283333D01*
X221402380Y-144235714D01*
X221545238Y-144235714D01*
X221640476Y-144283333D01*
X221688095Y-144378571D01*
X221688095Y-144902381D01*
X221688095Y-144378571D02*
X221735714Y-144283333D01*
X221830952Y-144235714D01*
X221973809Y-144235714D01*
X222069047Y-144283333D01*
X222116666Y-144378571D01*
X222116666Y-144902381D01*
X223021428Y-144902381D02*
X223021428Y-144378571D01*
X222973809Y-144283333D01*
X222878571Y-144235714D01*
X222688094Y-144235714D01*
X222592856Y-144283333D01*
X223021428Y-144854762D02*
X222926190Y-144902381D01*
X222688094Y-144902381D01*
X222592856Y-144854762D01*
X222545237Y-144759524D01*
X222545237Y-144664286D01*
X222592856Y-144569048D01*
X222688094Y-144521429D01*
X222926190Y-144521429D01*
X223021428Y-144473810D01*
X223449999Y-144854762D02*
X223545237Y-144902381D01*
X223735713Y-144902381D01*
X223830952Y-144854762D01*
X223878571Y-144759524D01*
X223878571Y-144711905D01*
X223830952Y-144616667D01*
X223735713Y-144569048D01*
X223592856Y-144569048D01*
X223497618Y-144521429D01*
X223449999Y-144426190D01*
X223449999Y-144378571D01*
X223497618Y-144283333D01*
X223592856Y-144235714D01*
X223735713Y-144235714D01*
X223830952Y-144283333D01*
X224926190Y-143902381D02*
X225259523Y-144902381D01*
X225592857Y-143902381D01*
X226354762Y-144902381D02*
X226354762Y-144378571D01*
X226307143Y-144283333D01*
X226211905Y-144235714D01*
X226021428Y-144235714D01*
X225926190Y-144283333D01*
X226354762Y-144854762D02*
X226259524Y-144902381D01*
X226021428Y-144902381D01*
X225926190Y-144854762D01*
X225878571Y-144759524D01*
X225878571Y-144664286D01*
X225926190Y-144569048D01*
X226021428Y-144521429D01*
X226259524Y-144521429D01*
X226354762Y-144473810D01*
X226830952Y-144235714D02*
X226830952Y-144902381D01*
X226830952Y-144330952D02*
X226878571Y-144283333D01*
X226973809Y-144235714D01*
X227116667Y-144235714D01*
X227211905Y-144283333D01*
X227259524Y-144378571D01*
X227259524Y-144902381D01*
X228926191Y-144902381D02*
X228926191Y-143902381D01*
X228926191Y-144854762D02*
X228830953Y-144902381D01*
X228640476Y-144902381D01*
X228545238Y-144854762D01*
X228497619Y-144807143D01*
X228450000Y-144711905D01*
X228450000Y-144426190D01*
X228497619Y-144330952D01*
X228545238Y-144283333D01*
X228640476Y-144235714D01*
X228830953Y-144235714D01*
X228926191Y-144283333D01*
X229783334Y-144854762D02*
X229688096Y-144902381D01*
X229497619Y-144902381D01*
X229402381Y-144854762D01*
X229354762Y-144759524D01*
X229354762Y-144378571D01*
X229402381Y-144283333D01*
X229497619Y-144235714D01*
X229688096Y-144235714D01*
X229783334Y-144283333D01*
X229830953Y-144378571D01*
X229830953Y-144473810D01*
X229354762Y-144569048D01*
X230259524Y-144235714D02*
X230259524Y-144902381D01*
X230259524Y-144330952D02*
X230307143Y-144283333D01*
X230402381Y-144235714D01*
X230545239Y-144235714D01*
X230640477Y-144283333D01*
X230688096Y-144378571D01*
X230688096Y-144902381D01*
X231926191Y-144902381D02*
X231926191Y-143902381D01*
X232164286Y-143902381D01*
X232307144Y-143950000D01*
X232402382Y-144045238D01*
X232450001Y-144140476D01*
X232497620Y-144330952D01*
X232497620Y-144473810D01*
X232450001Y-144664286D01*
X232402382Y-144759524D01*
X232307144Y-144854762D01*
X232164286Y-144902381D01*
X231926191Y-144902381D01*
X232926191Y-144902381D02*
X232926191Y-144235714D01*
X232926191Y-144426190D02*
X232973810Y-144330952D01*
X233021429Y-144283333D01*
X233116667Y-144235714D01*
X233211906Y-144235714D01*
X233545239Y-144902381D02*
X233545239Y-144235714D01*
X233545239Y-143902381D02*
X233497620Y-143950000D01*
X233545239Y-143997619D01*
X233592858Y-143950000D01*
X233545239Y-143902381D01*
X233545239Y-143997619D01*
X234402382Y-144854762D02*
X234307144Y-144902381D01*
X234116667Y-144902381D01*
X234021429Y-144854762D01*
X233973810Y-144759524D01*
X233973810Y-144378571D01*
X234021429Y-144283333D01*
X234116667Y-144235714D01*
X234307144Y-144235714D01*
X234402382Y-144283333D01*
X234450001Y-144378571D01*
X234450001Y-144473810D01*
X233973810Y-144569048D01*
X234830953Y-144854762D02*
X234926191Y-144902381D01*
X235116667Y-144902381D01*
X235211906Y-144854762D01*
X235259525Y-144759524D01*
X235259525Y-144711905D01*
X235211906Y-144616667D01*
X235116667Y-144569048D01*
X234973810Y-144569048D01*
X234878572Y-144521429D01*
X234830953Y-144426190D01*
X234830953Y-144378571D01*
X234878572Y-144283333D01*
X234973810Y-144235714D01*
X235116667Y-144235714D01*
X235211906Y-144283333D01*
X199307143Y-137602381D02*
X199307143Y-138411905D01*
X199354762Y-138507143D01*
X199402381Y-138554762D01*
X199497619Y-138602381D01*
X199688096Y-138602381D01*
X199783334Y-138554762D01*
X199830953Y-138507143D01*
X199878572Y-138411905D01*
X199878572Y-137602381D01*
X200307143Y-138554762D02*
X200450000Y-138602381D01*
X200688096Y-138602381D01*
X200783334Y-138554762D01*
X200830953Y-138507143D01*
X200878572Y-138411905D01*
X200878572Y-138316667D01*
X200830953Y-138221429D01*
X200783334Y-138173810D01*
X200688096Y-138126190D01*
X200497619Y-138078571D01*
X200402381Y-138030952D01*
X200354762Y-137983333D01*
X200307143Y-137888095D01*
X200307143Y-137792857D01*
X200354762Y-137697619D01*
X200402381Y-137650000D01*
X200497619Y-137602381D01*
X200735715Y-137602381D01*
X200878572Y-137650000D01*
X201640477Y-138078571D02*
X201783334Y-138126190D01*
X201830953Y-138173810D01*
X201878572Y-138269048D01*
X201878572Y-138411905D01*
X201830953Y-138507143D01*
X201783334Y-138554762D01*
X201688096Y-138602381D01*
X201307143Y-138602381D01*
X201307143Y-137602381D01*
X201640477Y-137602381D01*
X201735715Y-137650000D01*
X201783334Y-137697619D01*
X201830953Y-137792857D01*
X201830953Y-137888095D01*
X201783334Y-137983333D01*
X201735715Y-138030952D01*
X201640477Y-138078571D01*
X201307143Y-138078571D01*
X203640477Y-138507143D02*
X203592858Y-138554762D01*
X203450001Y-138602381D01*
X203354763Y-138602381D01*
X203211905Y-138554762D01*
X203116667Y-138459524D01*
X203069048Y-138364286D01*
X203021429Y-138173810D01*
X203021429Y-138030952D01*
X203069048Y-137840476D01*
X203116667Y-137745238D01*
X203211905Y-137650000D01*
X203354763Y-137602381D01*
X203450001Y-137602381D01*
X203592858Y-137650000D01*
X203640477Y-137697619D01*
X210926190Y-139602381D02*
X211116667Y-139602381D01*
X211211905Y-139650000D01*
X211307143Y-139745238D01*
X211354762Y-139935714D01*
X211354762Y-140269048D01*
X211307143Y-140459524D01*
X211211905Y-140554762D01*
X211116667Y-140602381D01*
X210926190Y-140602381D01*
X210830952Y-140554762D01*
X210735714Y-140459524D01*
X210688095Y-140269048D01*
X210688095Y-139935714D01*
X210735714Y-139745238D01*
X210830952Y-139650000D01*
X210926190Y-139602381D01*
X211783333Y-140602381D02*
X211783333Y-139602381D01*
X212354762Y-140602381D01*
X212354762Y-139602381D01*
X213545238Y-139554762D02*
X212688095Y-140840476D01*
X214069047Y-139602381D02*
X214259524Y-139602381D01*
X214354762Y-139650000D01*
X214450000Y-139745238D01*
X214497619Y-139935714D01*
X214497619Y-140269048D01*
X214450000Y-140459524D01*
X214354762Y-140554762D01*
X214259524Y-140602381D01*
X214069047Y-140602381D01*
X213973809Y-140554762D01*
X213878571Y-140459524D01*
X213830952Y-140269048D01*
X213830952Y-139935714D01*
X213878571Y-139745238D01*
X213973809Y-139650000D01*
X214069047Y-139602381D01*
X215259524Y-140078571D02*
X214926190Y-140078571D01*
X214926190Y-140602381D02*
X214926190Y-139602381D01*
X215402381Y-139602381D01*
X216116667Y-140078571D02*
X215783333Y-140078571D01*
X215783333Y-140602381D02*
X215783333Y-139602381D01*
X216259524Y-139602381D01*
X221545238Y-139602381D02*
X221735715Y-139602381D01*
X221830953Y-139650000D01*
X221926191Y-139745238D01*
X221973810Y-139935714D01*
X221973810Y-140269048D01*
X221926191Y-140459524D01*
X221830953Y-140554762D01*
X221735715Y-140602381D01*
X221545238Y-140602381D01*
X221450000Y-140554762D01*
X221354762Y-140459524D01*
X221307143Y-140269048D01*
X221307143Y-139935714D01*
X221354762Y-139745238D01*
X221450000Y-139650000D01*
X221545238Y-139602381D01*
X222402381Y-139602381D02*
X222402381Y-140411905D01*
X222450000Y-140507143D01*
X222497619Y-140554762D01*
X222592857Y-140602381D01*
X222783334Y-140602381D01*
X222878572Y-140554762D01*
X222926191Y-140507143D01*
X222973810Y-140411905D01*
X222973810Y-139602381D01*
X223307143Y-139602381D02*
X223878572Y-139602381D01*
X223592857Y-140602381D02*
X223592857Y-139602381D01*
X224211905Y-140602381D02*
X224211905Y-139602381D01*
X224592858Y-139602381D01*
X224688096Y-139650000D01*
X224735715Y-139697619D01*
X224783334Y-139792857D01*
X224783334Y-139935714D01*
X224735715Y-140030952D01*
X224688096Y-140078571D01*
X224592858Y-140126190D01*
X224211905Y-140126190D01*
X225211905Y-139602381D02*
X225211905Y-140411905D01*
X225259524Y-140507143D01*
X225307143Y-140554762D01*
X225402381Y-140602381D01*
X225592858Y-140602381D01*
X225688096Y-140554762D01*
X225735715Y-140507143D01*
X225783334Y-140411905D01*
X225783334Y-139602381D01*
X226116667Y-139602381D02*
X226688096Y-139602381D01*
X226402381Y-140602381D02*
X226402381Y-139602381D01*
X230307143Y-140507143D02*
X230259524Y-140554762D01*
X230116667Y-140602381D01*
X230021429Y-140602381D01*
X229878571Y-140554762D01*
X229783333Y-140459524D01*
X229735714Y-140364286D01*
X229688095Y-140173810D01*
X229688095Y-140030952D01*
X229735714Y-139840476D01*
X229783333Y-139745238D01*
X229878571Y-139650000D01*
X230021429Y-139602381D01*
X230116667Y-139602381D01*
X230259524Y-139650000D01*
X230307143Y-139697619D01*
X231307143Y-140507143D02*
X231259524Y-140554762D01*
X231116667Y-140602381D01*
X231021429Y-140602381D01*
X230878571Y-140554762D01*
X230783333Y-140459524D01*
X230735714Y-140364286D01*
X230688095Y-140173810D01*
X230688095Y-140030952D01*
X230735714Y-139840476D01*
X230783333Y-139745238D01*
X230878571Y-139650000D01*
X231021429Y-139602381D01*
X231116667Y-139602381D01*
X231259524Y-139650000D01*
X231307143Y-139697619D01*
X232450000Y-139554762D02*
X231592857Y-140840476D01*
X233354762Y-140507143D02*
X233307143Y-140554762D01*
X233164286Y-140602381D01*
X233069048Y-140602381D01*
X232926190Y-140554762D01*
X232830952Y-140459524D01*
X232783333Y-140364286D01*
X232735714Y-140173810D01*
X232735714Y-140030952D01*
X232783333Y-139840476D01*
X232830952Y-139745238D01*
X232926190Y-139650000D01*
X233069048Y-139602381D01*
X233164286Y-139602381D01*
X233307143Y-139650000D01*
X233354762Y-139697619D01*
X233640476Y-139602381D02*
X233973809Y-140602381D01*
X234307143Y-139602381D01*
X196759523Y-143902381D02*
X196854762Y-143902381D01*
X196950000Y-143950000D01*
X196997619Y-143997619D01*
X197045238Y-144092857D01*
X197092857Y-144283333D01*
X197092857Y-144521429D01*
X197045238Y-144711905D01*
X196997619Y-144807143D01*
X196950000Y-144854762D01*
X196854762Y-144902381D01*
X196759523Y-144902381D01*
X196664285Y-144854762D01*
X196616666Y-144807143D01*
X196569047Y-144711905D01*
X196521428Y-144521429D01*
X196521428Y-144283333D01*
X196569047Y-144092857D01*
X196616666Y-143997619D01*
X196664285Y-143950000D01*
X196759523Y-143902381D01*
X197521428Y-144521429D02*
X198283333Y-144521429D01*
X198711904Y-143997619D02*
X198759523Y-143950000D01*
X198854761Y-143902381D01*
X199092857Y-143902381D01*
X199188095Y-143950000D01*
X199235714Y-143997619D01*
X199283333Y-144092857D01*
X199283333Y-144188095D01*
X199235714Y-144330952D01*
X198664285Y-144902381D01*
X199283333Y-144902381D01*
X200188095Y-143902381D02*
X199711904Y-143902381D01*
X199664285Y-144378571D01*
X199711904Y-144330952D01*
X199807142Y-144283333D01*
X200045238Y-144283333D01*
X200140476Y-144330952D01*
X200188095Y-144378571D01*
X200235714Y-144473810D01*
X200235714Y-144711905D01*
X200188095Y-144807143D01*
X200140476Y-144854762D01*
X200045238Y-144902381D01*
X199807142Y-144902381D01*
X199711904Y-144854762D01*
X199664285Y-144807143D01*
X200521428Y-143902381D02*
X200854761Y-144902381D01*
X201188095Y-143902381D01*
X202473809Y-143902381D02*
X202569048Y-143902381D01*
X202664286Y-143950000D01*
X202711905Y-143997619D01*
X202759524Y-144092857D01*
X202807143Y-144283333D01*
X202807143Y-144521429D01*
X202759524Y-144711905D01*
X202711905Y-144807143D01*
X202664286Y-144854762D01*
X202569048Y-144902381D01*
X202473809Y-144902381D01*
X202378571Y-144854762D01*
X202330952Y-144807143D01*
X202283333Y-144711905D01*
X202235714Y-144521429D01*
X202235714Y-144283333D01*
X202283333Y-144092857D01*
X202330952Y-143997619D01*
X202378571Y-143950000D01*
X202473809Y-143902381D01*
X203235714Y-144521429D02*
X203997619Y-144521429D01*
X204997619Y-144902381D02*
X204426190Y-144902381D01*
X204711904Y-144902381D02*
X204711904Y-143902381D01*
X204616666Y-144045238D01*
X204521428Y-144140476D01*
X204426190Y-144188095D01*
X205378571Y-144616667D02*
X205854762Y-144616667D01*
X205283333Y-144902381D02*
X205616666Y-143902381D01*
X205950000Y-144902381D01*
X207045238Y-144902381D02*
X207045238Y-143902381D01*
X207378572Y-144616667D01*
X207711905Y-143902381D01*
X207711905Y-144902381D01*
X208140476Y-144616667D02*
X208616667Y-144616667D01*
X208045238Y-144902381D02*
X208378571Y-143902381D01*
X208711905Y-144902381D01*
X208950000Y-143902381D02*
X209616667Y-144902381D01*
X209616667Y-143902381D02*
X208950000Y-144902381D01*
X211283334Y-144902381D02*
X210711905Y-144902381D01*
X210997619Y-144902381D02*
X210997619Y-143902381D01*
X210902381Y-144045238D01*
X210807143Y-144140476D01*
X210711905Y-144188095D01*
X211664286Y-143997619D02*
X211711905Y-143950000D01*
X211807143Y-143902381D01*
X212045239Y-143902381D01*
X212140477Y-143950000D01*
X212188096Y-143997619D01*
X212235715Y-144092857D01*
X212235715Y-144188095D01*
X212188096Y-144330952D01*
X211616667Y-144902381D01*
X212235715Y-144902381D01*
X212569048Y-143902381D02*
X212807143Y-144902381D01*
X212997620Y-144188095D01*
X213188096Y-144902381D01*
X213426191Y-143902381D01*
X199521429Y-140602381D02*
X199521429Y-139602381D01*
X199997619Y-140602381D02*
X199997619Y-139602381D01*
X200569048Y-140602381D01*
X200569048Y-139602381D01*
X201045238Y-140602381D02*
X201045238Y-139602381D01*
X201426191Y-139602381D01*
X201521429Y-139650000D01*
X201569048Y-139697619D01*
X201616667Y-139792857D01*
X201616667Y-139935714D01*
X201569048Y-140030952D01*
X201521429Y-140078571D01*
X201426191Y-140126190D01*
X201045238Y-140126190D01*
X202045238Y-139602381D02*
X202045238Y-140411905D01*
X202092857Y-140507143D01*
X202140476Y-140554762D01*
X202235714Y-140602381D01*
X202426191Y-140602381D01*
X202521429Y-140554762D01*
X202569048Y-140507143D01*
X202616667Y-140411905D01*
X202616667Y-139602381D01*
X202950000Y-139602381D02*
X203521429Y-139602381D01*
X203235714Y-140602381D02*
X203235714Y-139602381D01*
X199521429Y-140602381D02*
X199521429Y-139602381D01*
X199997619Y-140602381D02*
X199997619Y-139602381D01*
X200569048Y-140602381D01*
X200569048Y-139602381D01*
X201045238Y-140602381D02*
X201045238Y-139602381D01*
X201426191Y-139602381D01*
X201521429Y-139650000D01*
X201569048Y-139697619D01*
X201616667Y-139792857D01*
X201616667Y-139935714D01*
X201569048Y-140030952D01*
X201521429Y-140078571D01*
X201426191Y-140126190D01*
X201045238Y-140126190D01*
X202045238Y-139602381D02*
X202045238Y-140411905D01*
X202092857Y-140507143D01*
X202140476Y-140554762D01*
X202235714Y-140602381D01*
X202426191Y-140602381D01*
X202521429Y-140554762D01*
X202569048Y-140507143D01*
X202616667Y-140411905D01*
X202616667Y-139602381D01*
X202950000Y-139602381D02*
X203521429Y-139602381D01*
X203235714Y-140602381D02*
X203235714Y-139602381D01*
X196759523Y-143902381D02*
X196854762Y-143902381D01*
X196950000Y-143950000D01*
X196997619Y-143997619D01*
X197045238Y-144092857D01*
X197092857Y-144283333D01*
X197092857Y-144521429D01*
X197045238Y-144711905D01*
X196997619Y-144807143D01*
X196950000Y-144854762D01*
X196854762Y-144902381D01*
X196759523Y-144902381D01*
X196664285Y-144854762D01*
X196616666Y-144807143D01*
X196569047Y-144711905D01*
X196521428Y-144521429D01*
X196521428Y-144283333D01*
X196569047Y-144092857D01*
X196616666Y-143997619D01*
X196664285Y-143950000D01*
X196759523Y-143902381D01*
X197521428Y-144521429D02*
X198283333Y-144521429D01*
X198711904Y-143997619D02*
X198759523Y-143950000D01*
X198854761Y-143902381D01*
X199092857Y-143902381D01*
X199188095Y-143950000D01*
X199235714Y-143997619D01*
X199283333Y-144092857D01*
X199283333Y-144188095D01*
X199235714Y-144330952D01*
X198664285Y-144902381D01*
X199283333Y-144902381D01*
X200188095Y-143902381D02*
X199711904Y-143902381D01*
X199664285Y-144378571D01*
X199711904Y-144330952D01*
X199807142Y-144283333D01*
X200045238Y-144283333D01*
X200140476Y-144330952D01*
X200188095Y-144378571D01*
X200235714Y-144473810D01*
X200235714Y-144711905D01*
X200188095Y-144807143D01*
X200140476Y-144854762D01*
X200045238Y-144902381D01*
X199807142Y-144902381D01*
X199711904Y-144854762D01*
X199664285Y-144807143D01*
X200521428Y-143902381D02*
X200854761Y-144902381D01*
X201188095Y-143902381D01*
X202473809Y-143902381D02*
X202569048Y-143902381D01*
X202664286Y-143950000D01*
X202711905Y-143997619D01*
X202759524Y-144092857D01*
X202807143Y-144283333D01*
X202807143Y-144521429D01*
X202759524Y-144711905D01*
X202711905Y-144807143D01*
X202664286Y-144854762D01*
X202569048Y-144902381D01*
X202473809Y-144902381D01*
X202378571Y-144854762D01*
X202330952Y-144807143D01*
X202283333Y-144711905D01*
X202235714Y-144521429D01*
X202235714Y-144283333D01*
X202283333Y-144092857D01*
X202330952Y-143997619D01*
X202378571Y-143950000D01*
X202473809Y-143902381D01*
X203235714Y-144521429D02*
X203997619Y-144521429D01*
X204997619Y-144902381D02*
X204426190Y-144902381D01*
X204711904Y-144902381D02*
X204711904Y-143902381D01*
X204616666Y-144045238D01*
X204521428Y-144140476D01*
X204426190Y-144188095D01*
X205378571Y-144616667D02*
X205854762Y-144616667D01*
X205283333Y-144902381D02*
X205616666Y-143902381D01*
X205950000Y-144902381D01*
X207045238Y-144902381D02*
X207045238Y-143902381D01*
X207378572Y-144616667D01*
X207711905Y-143902381D01*
X207711905Y-144902381D01*
X208140476Y-144616667D02*
X208616667Y-144616667D01*
X208045238Y-144902381D02*
X208378571Y-143902381D01*
X208711905Y-144902381D01*
X208950000Y-143902381D02*
X209616667Y-144902381D01*
X209616667Y-143902381D02*
X208950000Y-144902381D01*
X211283334Y-144902381D02*
X210711905Y-144902381D01*
X210997619Y-144902381D02*
X210997619Y-143902381D01*
X210902381Y-144045238D01*
X210807143Y-144140476D01*
X210711905Y-144188095D01*
X211664286Y-143997619D02*
X211711905Y-143950000D01*
X211807143Y-143902381D01*
X212045239Y-143902381D01*
X212140477Y-143950000D01*
X212188096Y-143997619D01*
X212235715Y-144092857D01*
X212235715Y-144188095D01*
X212188096Y-144330952D01*
X211616667Y-144902381D01*
X212235715Y-144902381D01*
X212569048Y-143902381D02*
X212807143Y-144902381D01*
X212997620Y-144188095D01*
X213188096Y-144902381D01*
X213426191Y-143902381D01*
X230307143Y-140507143D02*
X230259524Y-140554762D01*
X230116667Y-140602381D01*
X230021429Y-140602381D01*
X229878571Y-140554762D01*
X229783333Y-140459524D01*
X229735714Y-140364286D01*
X229688095Y-140173810D01*
X229688095Y-140030952D01*
X229735714Y-139840476D01*
X229783333Y-139745238D01*
X229878571Y-139650000D01*
X230021429Y-139602381D01*
X230116667Y-139602381D01*
X230259524Y-139650000D01*
X230307143Y-139697619D01*
X231307143Y-140507143D02*
X231259524Y-140554762D01*
X231116667Y-140602381D01*
X231021429Y-140602381D01*
X230878571Y-140554762D01*
X230783333Y-140459524D01*
X230735714Y-140364286D01*
X230688095Y-140173810D01*
X230688095Y-140030952D01*
X230735714Y-139840476D01*
X230783333Y-139745238D01*
X230878571Y-139650000D01*
X231021429Y-139602381D01*
X231116667Y-139602381D01*
X231259524Y-139650000D01*
X231307143Y-139697619D01*
X232450000Y-139554762D02*
X231592857Y-140840476D01*
X233354762Y-140507143D02*
X233307143Y-140554762D01*
X233164286Y-140602381D01*
X233069048Y-140602381D01*
X232926190Y-140554762D01*
X232830952Y-140459524D01*
X232783333Y-140364286D01*
X232735714Y-140173810D01*
X232735714Y-140030952D01*
X232783333Y-139840476D01*
X232830952Y-139745238D01*
X232926190Y-139650000D01*
X233069048Y-139602381D01*
X233164286Y-139602381D01*
X233307143Y-139650000D01*
X233354762Y-139697619D01*
X233640476Y-139602381D02*
X233973809Y-140602381D01*
X234307143Y-139602381D01*
X221545238Y-139602381D02*
X221735715Y-139602381D01*
X221830953Y-139650000D01*
X221926191Y-139745238D01*
X221973810Y-139935714D01*
X221973810Y-140269048D01*
X221926191Y-140459524D01*
X221830953Y-140554762D01*
X221735715Y-140602381D01*
X221545238Y-140602381D01*
X221450000Y-140554762D01*
X221354762Y-140459524D01*
X221307143Y-140269048D01*
X221307143Y-139935714D01*
X221354762Y-139745238D01*
X221450000Y-139650000D01*
X221545238Y-139602381D01*
X222402381Y-139602381D02*
X222402381Y-140411905D01*
X222450000Y-140507143D01*
X222497619Y-140554762D01*
X222592857Y-140602381D01*
X222783334Y-140602381D01*
X222878572Y-140554762D01*
X222926191Y-140507143D01*
X222973810Y-140411905D01*
X222973810Y-139602381D01*
X223307143Y-139602381D02*
X223878572Y-139602381D01*
X223592857Y-140602381D02*
X223592857Y-139602381D01*
X224211905Y-140602381D02*
X224211905Y-139602381D01*
X224592858Y-139602381D01*
X224688096Y-139650000D01*
X224735715Y-139697619D01*
X224783334Y-139792857D01*
X224783334Y-139935714D01*
X224735715Y-140030952D01*
X224688096Y-140078571D01*
X224592858Y-140126190D01*
X224211905Y-140126190D01*
X225211905Y-139602381D02*
X225211905Y-140411905D01*
X225259524Y-140507143D01*
X225307143Y-140554762D01*
X225402381Y-140602381D01*
X225592858Y-140602381D01*
X225688096Y-140554762D01*
X225735715Y-140507143D01*
X225783334Y-140411905D01*
X225783334Y-139602381D01*
X226116667Y-139602381D02*
X226688096Y-139602381D01*
X226402381Y-140602381D02*
X226402381Y-139602381D01*
X210926190Y-139602381D02*
X211116667Y-139602381D01*
X211211905Y-139650000D01*
X211307143Y-139745238D01*
X211354762Y-139935714D01*
X211354762Y-140269048D01*
X211307143Y-140459524D01*
X211211905Y-140554762D01*
X211116667Y-140602381D01*
X210926190Y-140602381D01*
X210830952Y-140554762D01*
X210735714Y-140459524D01*
X210688095Y-140269048D01*
X210688095Y-139935714D01*
X210735714Y-139745238D01*
X210830952Y-139650000D01*
X210926190Y-139602381D01*
X211783333Y-140602381D02*
X211783333Y-139602381D01*
X212354762Y-140602381D01*
X212354762Y-139602381D01*
X213545238Y-139554762D02*
X212688095Y-140840476D01*
X214069047Y-139602381D02*
X214259524Y-139602381D01*
X214354762Y-139650000D01*
X214450000Y-139745238D01*
X214497619Y-139935714D01*
X214497619Y-140269048D01*
X214450000Y-140459524D01*
X214354762Y-140554762D01*
X214259524Y-140602381D01*
X214069047Y-140602381D01*
X213973809Y-140554762D01*
X213878571Y-140459524D01*
X213830952Y-140269048D01*
X213830952Y-139935714D01*
X213878571Y-139745238D01*
X213973809Y-139650000D01*
X214069047Y-139602381D01*
X215259524Y-140078571D02*
X214926190Y-140078571D01*
X214926190Y-140602381D02*
X214926190Y-139602381D01*
X215402381Y-139602381D01*
X216116667Y-140078571D02*
X215783333Y-140078571D01*
X215783333Y-140602381D02*
X215783333Y-139602381D01*
X216259524Y-139602381D01*
X199307143Y-137602381D02*
X199307143Y-138411905D01*
X199354762Y-138507143D01*
X199402381Y-138554762D01*
X199497619Y-138602381D01*
X199688096Y-138602381D01*
X199783334Y-138554762D01*
X199830953Y-138507143D01*
X199878572Y-138411905D01*
X199878572Y-137602381D01*
X200307143Y-138554762D02*
X200450000Y-138602381D01*
X200688096Y-138602381D01*
X200783334Y-138554762D01*
X200830953Y-138507143D01*
X200878572Y-138411905D01*
X200878572Y-138316667D01*
X200830953Y-138221429D01*
X200783334Y-138173810D01*
X200688096Y-138126190D01*
X200497619Y-138078571D01*
X200402381Y-138030952D01*
X200354762Y-137983333D01*
X200307143Y-137888095D01*
X200307143Y-137792857D01*
X200354762Y-137697619D01*
X200402381Y-137650000D01*
X200497619Y-137602381D01*
X200735715Y-137602381D01*
X200878572Y-137650000D01*
X201640477Y-138078571D02*
X201783334Y-138126190D01*
X201830953Y-138173810D01*
X201878572Y-138269048D01*
X201878572Y-138411905D01*
X201830953Y-138507143D01*
X201783334Y-138554762D01*
X201688096Y-138602381D01*
X201307143Y-138602381D01*
X201307143Y-137602381D01*
X201640477Y-137602381D01*
X201735715Y-137650000D01*
X201783334Y-137697619D01*
X201830953Y-137792857D01*
X201830953Y-137888095D01*
X201783334Y-137983333D01*
X201735715Y-138030952D01*
X201640477Y-138078571D01*
X201307143Y-138078571D01*
X203640477Y-138507143D02*
X203592858Y-138554762D01*
X203450001Y-138602381D01*
X203354763Y-138602381D01*
X203211905Y-138554762D01*
X203116667Y-138459524D01*
X203069048Y-138364286D01*
X203021429Y-138173810D01*
X203021429Y-138030952D01*
X203069048Y-137840476D01*
X203116667Y-137745238D01*
X203211905Y-137650000D01*
X203354763Y-137602381D01*
X203450001Y-137602381D01*
X203592858Y-137650000D01*
X203640477Y-137697619D01*
X218545237Y-143902381D02*
X219116666Y-143902381D01*
X218830951Y-144902381D02*
X218830951Y-143902381D01*
X219449999Y-144902381D02*
X219449999Y-143902381D01*
X219878571Y-144902381D02*
X219878571Y-144378571D01*
X219830952Y-144283333D01*
X219735714Y-144235714D01*
X219592856Y-144235714D01*
X219497618Y-144283333D01*
X219449999Y-144330952D01*
X220497618Y-144902381D02*
X220402380Y-144854762D01*
X220354761Y-144807143D01*
X220307142Y-144711905D01*
X220307142Y-144426190D01*
X220354761Y-144330952D01*
X220402380Y-144283333D01*
X220497618Y-144235714D01*
X220640476Y-144235714D01*
X220735714Y-144283333D01*
X220783333Y-144330952D01*
X220830952Y-144426190D01*
X220830952Y-144711905D01*
X220783333Y-144807143D01*
X220735714Y-144854762D01*
X220640476Y-144902381D01*
X220497618Y-144902381D01*
X221259523Y-144902381D02*
X221259523Y-144235714D01*
X221259523Y-144330952D02*
X221307142Y-144283333D01*
X221402380Y-144235714D01*
X221545238Y-144235714D01*
X221640476Y-144283333D01*
X221688095Y-144378571D01*
X221688095Y-144902381D01*
X221688095Y-144378571D02*
X221735714Y-144283333D01*
X221830952Y-144235714D01*
X221973809Y-144235714D01*
X222069047Y-144283333D01*
X222116666Y-144378571D01*
X222116666Y-144902381D01*
X223021428Y-144902381D02*
X223021428Y-144378571D01*
X222973809Y-144283333D01*
X222878571Y-144235714D01*
X222688094Y-144235714D01*
X222592856Y-144283333D01*
X223021428Y-144854762D02*
X222926190Y-144902381D01*
X222688094Y-144902381D01*
X222592856Y-144854762D01*
X222545237Y-144759524D01*
X222545237Y-144664286D01*
X222592856Y-144569048D01*
X222688094Y-144521429D01*
X222926190Y-144521429D01*
X223021428Y-144473810D01*
X223449999Y-144854762D02*
X223545237Y-144902381D01*
X223735713Y-144902381D01*
X223830952Y-144854762D01*
X223878571Y-144759524D01*
X223878571Y-144711905D01*
X223830952Y-144616667D01*
X223735713Y-144569048D01*
X223592856Y-144569048D01*
X223497618Y-144521429D01*
X223449999Y-144426190D01*
X223449999Y-144378571D01*
X223497618Y-144283333D01*
X223592856Y-144235714D01*
X223735713Y-144235714D01*
X223830952Y-144283333D01*
X224926190Y-143902381D02*
X225259523Y-144902381D01*
X225592857Y-143902381D01*
X226354762Y-144902381D02*
X226354762Y-144378571D01*
X226307143Y-144283333D01*
X226211905Y-144235714D01*
X226021428Y-144235714D01*
X225926190Y-144283333D01*
X226354762Y-144854762D02*
X226259524Y-144902381D01*
X226021428Y-144902381D01*
X225926190Y-144854762D01*
X225878571Y-144759524D01*
X225878571Y-144664286D01*
X225926190Y-144569048D01*
X226021428Y-144521429D01*
X226259524Y-144521429D01*
X226354762Y-144473810D01*
X226830952Y-144235714D02*
X226830952Y-144902381D01*
X226830952Y-144330952D02*
X226878571Y-144283333D01*
X226973809Y-144235714D01*
X227116667Y-144235714D01*
X227211905Y-144283333D01*
X227259524Y-144378571D01*
X227259524Y-144902381D01*
X228926191Y-144902381D02*
X228926191Y-143902381D01*
X228926191Y-144854762D02*
X228830953Y-144902381D01*
X228640476Y-144902381D01*
X228545238Y-144854762D01*
X228497619Y-144807143D01*
X228450000Y-144711905D01*
X228450000Y-144426190D01*
X228497619Y-144330952D01*
X228545238Y-144283333D01*
X228640476Y-144235714D01*
X228830953Y-144235714D01*
X228926191Y-144283333D01*
X229783334Y-144854762D02*
X229688096Y-144902381D01*
X229497619Y-144902381D01*
X229402381Y-144854762D01*
X229354762Y-144759524D01*
X229354762Y-144378571D01*
X229402381Y-144283333D01*
X229497619Y-144235714D01*
X229688096Y-144235714D01*
X229783334Y-144283333D01*
X229830953Y-144378571D01*
X229830953Y-144473810D01*
X229354762Y-144569048D01*
X230259524Y-144235714D02*
X230259524Y-144902381D01*
X230259524Y-144330952D02*
X230307143Y-144283333D01*
X230402381Y-144235714D01*
X230545239Y-144235714D01*
X230640477Y-144283333D01*
X230688096Y-144378571D01*
X230688096Y-144902381D01*
X231926191Y-144902381D02*
X231926191Y-143902381D01*
X232164286Y-143902381D01*
X232307144Y-143950000D01*
X232402382Y-144045238D01*
X232450001Y-144140476D01*
X232497620Y-144330952D01*
X232497620Y-144473810D01*
X232450001Y-144664286D01*
X232402382Y-144759524D01*
X232307144Y-144854762D01*
X232164286Y-144902381D01*
X231926191Y-144902381D01*
X232926191Y-144902381D02*
X232926191Y-144235714D01*
X232926191Y-144426190D02*
X232973810Y-144330952D01*
X233021429Y-144283333D01*
X233116667Y-144235714D01*
X233211906Y-144235714D01*
X233545239Y-144902381D02*
X233545239Y-144235714D01*
X233545239Y-143902381D02*
X233497620Y-143950000D01*
X233545239Y-143997619D01*
X233592858Y-143950000D01*
X233545239Y-143902381D01*
X233545239Y-143997619D01*
X234402382Y-144854762D02*
X234307144Y-144902381D01*
X234116667Y-144902381D01*
X234021429Y-144854762D01*
X233973810Y-144759524D01*
X233973810Y-144378571D01*
X234021429Y-144283333D01*
X234116667Y-144235714D01*
X234307144Y-144235714D01*
X234402382Y-144283333D01*
X234450001Y-144378571D01*
X234450001Y-144473810D01*
X233973810Y-144569048D01*
X234830953Y-144854762D02*
X234926191Y-144902381D01*
X235116667Y-144902381D01*
X235211906Y-144854762D01*
X235259525Y-144759524D01*
X235259525Y-144711905D01*
X235211906Y-144616667D01*
X235116667Y-144569048D01*
X234973810Y-144569048D01*
X234878572Y-144521429D01*
X234830953Y-144426190D01*
X234830953Y-144378571D01*
X234878572Y-144283333D01*
X234973810Y-144235714D01*
X235116667Y-144235714D01*
X235211906Y-144283333D01*
D11*
X227313095Y-131354762D02*
X227563095Y-129354762D01*
X228051190Y-130783333D01*
X228896429Y-129354762D01*
X228646429Y-131354762D01*
X229598809Y-131354762D02*
X229765475Y-130021429D01*
X229848809Y-129354762D02*
X229741666Y-129450000D01*
X229824999Y-129545238D01*
X229932143Y-129450000D01*
X229848809Y-129354762D01*
X229824999Y-129545238D01*
X230717856Y-130021429D02*
X230551190Y-131354762D01*
X230694047Y-130211905D02*
X230801191Y-130116667D01*
X231003571Y-130021429D01*
X231289285Y-130021429D01*
X231467857Y-130116667D01*
X231539285Y-130307143D01*
X231408333Y-131354762D01*
X232360714Y-131354762D02*
X232527380Y-130021429D01*
X232610714Y-129354762D02*
X232503571Y-129450000D01*
X232586904Y-129545238D01*
X232694048Y-129450000D01*
X232610714Y-129354762D01*
X232586904Y-129545238D01*
X198521428Y-131164286D02*
X198949999Y-131307143D01*
X199664285Y-131307143D01*
X199949999Y-131164286D01*
X200092856Y-131021429D01*
X200235713Y-130735714D01*
X200235713Y-130450000D01*
X200092856Y-130164286D01*
X199949999Y-130021429D01*
X199664285Y-129878571D01*
X199092856Y-129735714D01*
X198807142Y-129592857D01*
X198664285Y-129450000D01*
X198521428Y-129164286D01*
X198521428Y-128878571D01*
X198664285Y-128592857D01*
X198807142Y-128450000D01*
X199092856Y-128307143D01*
X199807142Y-128307143D01*
X200235713Y-128450000D01*
X201521428Y-131307143D02*
X201521428Y-129307143D01*
X201521428Y-129592857D02*
X201664285Y-129450000D01*
X201949999Y-129307143D01*
X202378571Y-129307143D01*
X202664285Y-129450000D01*
X202807142Y-129735714D01*
X202807142Y-131307143D01*
X202807142Y-129735714D02*
X202949999Y-129450000D01*
X203235713Y-129307143D01*
X203664285Y-129307143D01*
X203949999Y-129450000D01*
X204092856Y-129735714D01*
X204092856Y-131307143D01*
X206807142Y-131307143D02*
X206807142Y-129735714D01*
X206664285Y-129450000D01*
X206378571Y-129307143D01*
X205807142Y-129307143D01*
X205521428Y-129450000D01*
X206807142Y-131164286D02*
X206521428Y-131307143D01*
X205807142Y-131307143D01*
X205521428Y-131164286D01*
X205378571Y-130878571D01*
X205378571Y-130592857D01*
X205521428Y-130307143D01*
X205807142Y-130164286D01*
X206521428Y-130164286D01*
X206807142Y-130021429D01*
X208235714Y-131307143D02*
X208235714Y-129307143D01*
X208235714Y-129878571D02*
X208378571Y-129592857D01*
X208521428Y-129450000D01*
X208807142Y-129307143D01*
X209092857Y-129307143D01*
X209664285Y-129307143D02*
X210807142Y-129307143D01*
X210092857Y-128307143D02*
X210092857Y-130878571D01*
X210235714Y-131164286D01*
X210521428Y-131307143D01*
X210807142Y-131307143D01*
X211664286Y-131164286D02*
X212092857Y-131307143D01*
X212807143Y-131307143D01*
X213092857Y-131164286D01*
X213235714Y-131021429D01*
X213378571Y-130735714D01*
X213378571Y-130450000D01*
X213235714Y-130164286D01*
X213092857Y-130021429D01*
X212807143Y-129878571D01*
X212235714Y-129735714D01*
X211950000Y-129592857D01*
X211807143Y-129450000D01*
X211664286Y-129164286D01*
X211664286Y-128878571D01*
X211807143Y-128592857D01*
X211950000Y-128450000D01*
X212235714Y-128307143D01*
X212950000Y-128307143D01*
X213378571Y-128450000D01*
X215950000Y-129307143D02*
X215950000Y-131307143D01*
X214664286Y-129307143D02*
X214664286Y-130878571D01*
X214807143Y-131164286D01*
X215092857Y-131307143D01*
X215521429Y-131307143D01*
X215807143Y-131164286D01*
X215950000Y-131021429D01*
X217378572Y-129307143D02*
X217378572Y-132307143D01*
X217378572Y-129450000D02*
X217664286Y-129307143D01*
X218235715Y-129307143D01*
X218521429Y-129450000D01*
X218664286Y-129592857D01*
X218807143Y-129878571D01*
X218807143Y-130735714D01*
X218664286Y-131021429D01*
X218521429Y-131164286D01*
X218235715Y-131307143D01*
X217664286Y-131307143D01*
X217378572Y-131164286D01*
X220092858Y-129307143D02*
X220092858Y-132307143D01*
X220092858Y-129450000D02*
X220378572Y-129307143D01*
X220950001Y-129307143D01*
X221235715Y-129450000D01*
X221378572Y-129592857D01*
X221521429Y-129878571D01*
X221521429Y-130735714D01*
X221378572Y-131021429D01*
X221235715Y-131164286D01*
X220950001Y-131307143D01*
X220378572Y-131307143D01*
X220092858Y-131164286D01*
X223235715Y-131307143D02*
X222950001Y-131164286D01*
X222807144Y-130878571D01*
X222807144Y-128307143D01*
X224092858Y-129307143D02*
X224807144Y-131307143D01*
X225521430Y-129307143D02*
X224807144Y-131307143D01*
X224521430Y-132021429D01*
X224378573Y-132164286D01*
X224092858Y-132307143D01*
M02*
