G04 #@! TF.FileFunction,Profile,NP*
%FSLAX46Y46*%
G04 Gerber Fmt 4.6, Leading zero omitted, Abs format (unit mm)*
G04 Created by KiCad (PCBNEW 4.0.3-stable) date 10/18/17 08:43:59*
%MOMM*%
%LPD*%
G01*
G04 APERTURE LIST*
%ADD10C,0.100000*%
G04 APERTURE END LIST*
D10*
X233450000Y-136150000D02*
G75*
G03X233450000Y-136150000I-1500000J0D01*
G01*
X225450833Y-136150000D02*
G75*
G03X225450833Y-136150000I-1500833J0D01*
G01*
X215450000Y-136650000D02*
G75*
G03X215450000Y-136650000I-2000000J0D01*
G01*
X205350000Y-136900000D02*
G75*
G03X206350000Y-135900000I0J1000000D01*
G01*
X196750000Y-135900000D02*
G75*
G03X197750000Y-136900000I1000000J0D01*
G01*
X196750000Y-135150000D02*
X196750000Y-135900000D01*
X196750000Y-135150000D02*
X196750000Y-134400000D01*
X197750000Y-133400000D02*
G75*
G03X196750000Y-134400000I0J-1000000D01*
G01*
X201550000Y-133400000D02*
X198600000Y-133400000D01*
X201550000Y-133400000D02*
X204500000Y-133400000D01*
X204500000Y-133400000D02*
X205250000Y-133400000D01*
X198600000Y-133400000D02*
X197850000Y-133400000D01*
X206350000Y-134400000D02*
G75*
G03X205350000Y-133400000I-1000000J0D01*
G01*
X206350000Y-135150000D02*
X206350000Y-134400000D01*
X206350000Y-135150000D02*
X206350000Y-135900000D01*
X204500000Y-136900000D02*
X205250000Y-136900000D01*
X201550000Y-136900000D02*
X204500000Y-136900000D01*
X201550000Y-136900000D02*
X198600000Y-136900000D01*
X198600000Y-136900000D02*
X197850000Y-136900000D01*
X190950000Y-143950000D02*
G75*
G03X192950000Y-145950000I2000000J0D01*
G01*
X190950000Y-127950000D02*
X190950000Y-143950000D01*
X192950000Y-125950000D02*
G75*
G03X190950000Y-127950000I0J-2000000D01*
G01*
X192950000Y-125950000D02*
X194450000Y-125950000D01*
X194450000Y-125950000D02*
X197050000Y-125950000D01*
X234850000Y-125950000D02*
X197050000Y-125950000D01*
X234850000Y-125950000D02*
X237450000Y-125950000D01*
X237450000Y-125950000D02*
X238950000Y-125950000D01*
X240950000Y-127950000D02*
G75*
G03X238950000Y-125950000I-2000000J0D01*
G01*
X240950000Y-143950000D02*
X240950000Y-127950000D01*
X238950000Y-145950000D02*
G75*
G03X240950000Y-143950000I0J2000000D01*
G01*
X237450000Y-145950000D02*
X238950000Y-145950000D01*
X194450000Y-145950000D02*
X237450000Y-145950000D01*
X192950000Y-145950000D02*
X194450000Y-145950000D01*
X197850000Y-133400000D02*
X197750000Y-133400000D01*
X197850000Y-136900000D02*
X197750000Y-136900000D01*
X205350000Y-133400000D02*
X205250000Y-133400000D01*
X205350000Y-136900000D02*
X205250000Y-136900000D01*
X194700000Y-143450000D02*
G75*
G03X194700000Y-143450000I-1250000J0D01*
G01*
X239724755Y-143450000D02*
G75*
G03X239724755Y-143450000I-1274755J0D01*
G01*
X239700000Y-128450000D02*
G75*
G03X239700000Y-128450000I-1250000J0D01*
G01*
X194700000Y-128450000D02*
G75*
G03X194700000Y-128450000I-1250000J0D01*
G01*
M02*
