M48
METRIC,TZ
T1C0.400
T2C0.500
T3C0.900
T4C1.000
T5C1.300
%
G90
G05
T1
X130500Y-63250
X130500Y-65250
X130500Y-122500
X130500Y-124000
X130500Y-125500
X130500Y-127250
X130500Y-129000
X130500Y-131000
X132500Y-79750
X132500Y-84000
X132500Y-85500
X132750Y-82500
X132750Y-87000
X132750Y-116750
X133500Y-105250
X133500Y-106500
X133750Y-123250
X133750Y-125250
X133750Y-127250
X133750Y-129250
X134250Y-91500
X134250Y-107250
X134600Y-67400
X135000Y-68000
X135300Y-63550
X135400Y-67400
X135700Y-62850
X135750Y-126000
X135800Y-68000
X136200Y-67400
X136250Y-92000
X136400Y-77900
X136500Y-62850
X136500Y-99750
X136900Y-63550
X137000Y-67400
X137250Y-92250
X137250Y-104000
X137250Y-105000
X137250Y-106000
X137300Y-62850
X137450Y-68350
X137500Y-70500
X137500Y-86600
X137700Y-63550
X137750Y-82500
X137750Y-85000
X138250Y-92500
X138250Y-107000
X138250Y-111500
X138250Y-116500
X138500Y-63550
X138500Y-68200
X138500Y-70500
X138750Y-118750
X138800Y-64300
X138900Y-62850
X139000Y-72400
X139100Y-67500
X139250Y-93000
X139300Y-63550
X139600Y-95200
X139700Y-62850
X139750Y-80000
X139900Y-76700
X140500Y-62850
X140500Y-78500
X140500Y-93000
X140750Y-84250
X140750Y-87500
X140900Y-63550
X142000Y-78250
X142000Y-83000
X142500Y-108750
X142750Y-88250
X143000Y-90250
X143250Y-97750
X143750Y-69250
X143750Y-75300
X143750Y-78000
X144000Y-85500
X144400Y-89900
X144500Y-81250
X144500Y-93000
X144750Y-78000
X144750Y-94250
X144750Y-100000
X145000Y-72000
X145250Y-105250
X145500Y-76500
X145750Y-82500
X146000Y-78750
X146250Y-94250
X146500Y-86500
X146800Y-64400
X147250Y-81500
X147500Y-131750
X147500Y-133200
X147750Y-79000
X147750Y-86500
X147750Y-99000
X148250Y-82750
X148250Y-116000
X148750Y-82000
X148750Y-86500
X148900Y-96000
X149000Y-133200
X149500Y-126750
X149750Y-76250
X149750Y-123750
X150250Y-90500
X150500Y-76750
X151000Y-126250
X151500Y-86500
X151500Y-93500
X152500Y-86500
X152500Y-132500
X153000Y-85250
X153250Y-91250
X153500Y-97750
X153750Y-85750
X154000Y-133000
X155500Y-86750
X155500Y-133000
X155750Y-80750
X155750Y-121250
X156000Y-66500
X156100Y-87600
X156150Y-88900
X156200Y-79100
X156250Y-98500
X156250Y-111500
X156300Y-96700
X157250Y-109500
X157250Y-112500
X157250Y-133000
X158500Y-80750
X158500Y-94750
X158600Y-95900
X160000Y-95300
X160500Y-93250
X160500Y-99750
X160600Y-83000
X160650Y-88200
X161250Y-78500
X161250Y-101500
X161500Y-79500
X162250Y-83000
X163200Y-93700
X163400Y-92200
X163450Y-102900
X164500Y-65500
X164750Y-124000
X164750Y-125750
X164750Y-127750
X164750Y-129500
X164750Y-131250
X165900Y-95400
X165900Y-97600
X166000Y-89900
X166500Y-125000
X166500Y-127250
X166500Y-129000
X166500Y-130750
X166750Y-80250
X167000Y-108000
X167250Y-77250
X167250Y-106000
X168650Y-95650
X168700Y-103900
X168750Y-87850
X169300Y-77400
X170250Y-106750
X171000Y-88500
X171000Y-98250
X171500Y-114000
X172300Y-111150
X172500Y-103750
X172750Y-116500
X173000Y-91000
X173000Y-96250
X173000Y-98250
X173000Y-102000
X173000Y-118250
X173000Y-119500
X173500Y-112000
X174500Y-116000
X175250Y-132750
T3
X157920Y-61000
X160460Y-61000
X163000Y-61000
X165920Y-61000
X168460Y-61000
X171000Y-61000
T4
X147750Y-58750
X147920Y-107250
X147920Y-109790
X150460Y-107250
X150460Y-109790
X152250Y-58750
X153000Y-107250
X153000Y-109790
X157750Y-72000
X160290Y-72000
X162830Y-72000
X165370Y-72000
X167910Y-72000
X170450Y-72000
T5
X146500Y-61250
X153500Y-61250
T2
X133610Y-57300G85X133610Y-56700
G05
X133970Y-63250G85X133970Y-62650
G05
X142230Y-63250G85X142230Y-62650
G05
X142590Y-57300G85X142590Y-56700
G05
T0
M30
