G04 #@! TF.FileFunction,Soldermask,Top*
%FSLAX46Y46*%
G04 Gerber Fmt 4.6, Leading zero omitted, Abs format (unit mm)*
G04 Created by KiCad (PCBNEW 4.0.3-stable) date 08/09/18 16:35:35*
%MOMM*%
%LPD*%
G01*
G04 APERTURE LIST*
%ADD10C,0.100000*%
%ADD11R,1.000000X1.000000*%
%ADD12R,0.750000X1.200000*%
%ADD13R,1.200000X0.750000*%
%ADD14R,1.600000X3.500000*%
%ADD15R,1.500000X1.250000*%
%ADD16R,1.100000X1.100000*%
%ADD17R,2.900680X5.400040*%
%ADD18R,1.700000X1.700000*%
%ADD19O,1.700000X1.700000*%
%ADD20R,5.000000X18.000000*%
%ADD21R,0.900000X0.800000*%
%ADD22R,1.200000X0.900000*%
%ADD23R,0.900000X1.200000*%
%ADD24R,1.550000X0.600000*%
%ADD25R,1.500000X0.550000*%
%ADD26R,0.550000X1.500000*%
%ADD27R,1.560000X0.650000*%
%ADD28R,1.500000X0.600000*%
%ADD29R,1.450000X0.450000*%
%ADD30R,7.875000X2.000000*%
%ADD31C,2.200000*%
%ADD32C,1.700000*%
%ADD33R,1.800000X1.800000*%
%ADD34C,1.800000*%
%ADD35O,0.800000X1.400000*%
%ADD36O,0.950000X0.660000*%
%ADD37C,0.650000*%
%ADD38R,0.300000X1.500000*%
%ADD39C,0.660000*%
G04 APERTURE END LIST*
D10*
X148194500Y-58750000D02*
G75*
G03X148194500Y-58750000I-444500J0D01*
G01*
X152694500Y-58750000D02*
G75*
G03X152694500Y-58750000I-444500J0D01*
G01*
X154135000Y-61250000D02*
G75*
G03X154135000Y-61250000I-635000J0D01*
G01*
X147135000Y-61250000D02*
G75*
G03X147135000Y-61250000I-635000J0D01*
G01*
D11*
X163200000Y-95250000D03*
X163200000Y-97750000D03*
D12*
X151750000Y-96950000D03*
X151750000Y-95050000D03*
X140500000Y-95050000D03*
X140500000Y-96950000D03*
D13*
X133800000Y-87000000D03*
X135700000Y-87000000D03*
X133800000Y-82500000D03*
X135700000Y-82500000D03*
X161500000Y-104900000D03*
X163400000Y-104900000D03*
D14*
X136000000Y-132700000D03*
X136000000Y-127300000D03*
D13*
X139450000Y-125000000D03*
X137550000Y-125000000D03*
X137050000Y-114500000D03*
X138950000Y-114500000D03*
D12*
X153000000Y-79800000D03*
X153000000Y-81700000D03*
D14*
X136000000Y-117300000D03*
X136000000Y-122700000D03*
D12*
X163150000Y-109600000D03*
X163150000Y-111500000D03*
D13*
X162850000Y-107800000D03*
X160950000Y-107800000D03*
D12*
X168300000Y-95450000D03*
X168300000Y-97350000D03*
D14*
X169500000Y-117300000D03*
X169500000Y-122700000D03*
D13*
X159400000Y-84150000D03*
X157500000Y-84150000D03*
X167400000Y-104900000D03*
X165500000Y-104900000D03*
D12*
X171500000Y-80050000D03*
X171500000Y-78150000D03*
D15*
X162750000Y-80250000D03*
X160250000Y-80250000D03*
D13*
X171900000Y-87650000D03*
X170000000Y-87650000D03*
X171900000Y-104900000D03*
X170000000Y-104900000D03*
D15*
X162750000Y-78100000D03*
X160250000Y-78100000D03*
X171250000Y-114000000D03*
X168750000Y-114000000D03*
D11*
X173750000Y-126000000D03*
X171250000Y-126000000D03*
X173750000Y-124000000D03*
X171250000Y-124000000D03*
D16*
X155100000Y-120250000D03*
X157900000Y-120250000D03*
X157900000Y-117750000D03*
X155100000Y-117750000D03*
D17*
X157501260Y-128500000D03*
X147498740Y-128500000D03*
D18*
X153000000Y-107250000D03*
D19*
X153000000Y-109790000D03*
X150460000Y-107250000D03*
X150460000Y-109790000D03*
X147920000Y-107250000D03*
X147920000Y-109790000D03*
D20*
X162000000Y-125750000D03*
X143000000Y-125750000D03*
D21*
X164900000Y-95450000D03*
X164900000Y-97350000D03*
X166900000Y-96400000D03*
X174000000Y-66450000D03*
X174000000Y-64550000D03*
X172000000Y-65500000D03*
D22*
X163600000Y-64500000D03*
X161400000Y-64500000D03*
X157400000Y-64500000D03*
X159600000Y-64500000D03*
X167900000Y-64500000D03*
X170100000Y-64500000D03*
X157100000Y-99150000D03*
X159300000Y-99150000D03*
X159300000Y-101150000D03*
X157100000Y-101150000D03*
X159300000Y-103150000D03*
X157100000Y-103150000D03*
X157100000Y-104900000D03*
X159300000Y-104900000D03*
X133650000Y-85500000D03*
X135850000Y-85500000D03*
X133650000Y-84000000D03*
X135850000Y-84000000D03*
D23*
X142000000Y-94900000D03*
X142000000Y-97100000D03*
D22*
X146850000Y-67500000D03*
X144650000Y-67500000D03*
X146850000Y-65500000D03*
X144650000Y-65500000D03*
D23*
X154750000Y-81850000D03*
X154750000Y-79650000D03*
D22*
X143600000Y-114500000D03*
X141400000Y-114500000D03*
D23*
X146250000Y-97100000D03*
X146250000Y-94900000D03*
X144750000Y-97100000D03*
X144750000Y-94900000D03*
X137175000Y-110725000D03*
X137175000Y-108525000D03*
X133675000Y-108525000D03*
X133675000Y-110725000D03*
X135425000Y-110725000D03*
X135425000Y-108525000D03*
D22*
X161250000Y-111550000D03*
X159050000Y-111550000D03*
X172050000Y-97400000D03*
X169850000Y-97400000D03*
X161250000Y-109550000D03*
X159050000Y-109550000D03*
X169850000Y-99150000D03*
X172050000Y-99150000D03*
X169850000Y-101150000D03*
X172050000Y-101150000D03*
X157350000Y-85900000D03*
X159550000Y-85900000D03*
X159550000Y-90900000D03*
X157350000Y-90900000D03*
X157350000Y-92400000D03*
X159550000Y-92400000D03*
X159550000Y-93900000D03*
X157350000Y-93900000D03*
X169850000Y-90900000D03*
X172050000Y-90900000D03*
X169850000Y-89400000D03*
X172050000Y-89400000D03*
X169850000Y-102650000D03*
X172050000Y-102650000D03*
X159550000Y-87400000D03*
X157350000Y-87400000D03*
X157350000Y-88900000D03*
X159550000Y-88900000D03*
X172050000Y-92400000D03*
X169850000Y-92400000D03*
X162600000Y-76100000D03*
X160400000Y-76100000D03*
X159200000Y-97400000D03*
X157000000Y-97400000D03*
X172050000Y-93900000D03*
X169850000Y-93900000D03*
X159200000Y-95700000D03*
X157000000Y-95700000D03*
X169850000Y-95650000D03*
X172050000Y-95650000D03*
X167100000Y-76100000D03*
X164900000Y-76100000D03*
X171350000Y-76100000D03*
X169150000Y-76100000D03*
X170100000Y-66500000D03*
X167900000Y-66500000D03*
X152600000Y-115000000D03*
X150400000Y-115000000D03*
X172050000Y-85900000D03*
X169850000Y-85900000D03*
X169850000Y-84150000D03*
X172050000Y-84150000D03*
X165600000Y-84150000D03*
X167800000Y-84150000D03*
X161600000Y-84150000D03*
X163800000Y-84150000D03*
D24*
X161750000Y-99245000D03*
X161750000Y-100515000D03*
X161750000Y-101785000D03*
X161750000Y-103055000D03*
X167150000Y-103055000D03*
X167150000Y-101785000D03*
X167150000Y-100515000D03*
X167150000Y-99245000D03*
D25*
X138800000Y-81750000D03*
X138800000Y-82550000D03*
X138800000Y-83350000D03*
X138800000Y-84150000D03*
X138800000Y-84950000D03*
X138800000Y-85750000D03*
X138800000Y-86550000D03*
X138800000Y-87350000D03*
X138800000Y-88150000D03*
X138800000Y-88950000D03*
X138800000Y-89750000D03*
D26*
X140500000Y-91450000D03*
X141300000Y-91450000D03*
X142100000Y-91450000D03*
X142900000Y-91450000D03*
X143700000Y-91450000D03*
X144500000Y-91450000D03*
X145300000Y-91450000D03*
X146100000Y-91450000D03*
X146900000Y-91450000D03*
X147700000Y-91450000D03*
X148500000Y-91450000D03*
D25*
X150200000Y-89750000D03*
X150200000Y-88950000D03*
X150200000Y-88150000D03*
X150200000Y-87350000D03*
X150200000Y-86550000D03*
X150200000Y-85750000D03*
X150200000Y-84950000D03*
X150200000Y-84150000D03*
X150200000Y-83350000D03*
X150200000Y-82550000D03*
X150200000Y-81750000D03*
D26*
X148500000Y-80050000D03*
X147700000Y-80050000D03*
X146900000Y-80050000D03*
X146100000Y-80050000D03*
X145300000Y-80050000D03*
X144500000Y-80050000D03*
X143700000Y-80050000D03*
X142900000Y-80050000D03*
X142100000Y-80050000D03*
X141300000Y-80050000D03*
X140500000Y-80050000D03*
D24*
X145125000Y-110780000D03*
X145125000Y-109510000D03*
X145125000Y-108240000D03*
X145125000Y-106970000D03*
X139725000Y-106970000D03*
X139725000Y-108240000D03*
X139725000Y-109510000D03*
X139725000Y-110780000D03*
D27*
X133650000Y-78800000D03*
X133650000Y-79750000D03*
X133650000Y-80700000D03*
X136350000Y-80700000D03*
X136350000Y-78800000D03*
X136350000Y-79750000D03*
D28*
X162000000Y-86090000D03*
X162000000Y-87360000D03*
X162000000Y-88630000D03*
X162000000Y-89900000D03*
X162000000Y-91170000D03*
X162000000Y-92440000D03*
X162000000Y-93710000D03*
X167400000Y-93710000D03*
X167400000Y-92440000D03*
X167400000Y-91170000D03*
X167400000Y-89900000D03*
X167400000Y-88630000D03*
X167400000Y-87360000D03*
X167400000Y-86090000D03*
D24*
X170600000Y-111705000D03*
X170600000Y-110435000D03*
X170600000Y-109165000D03*
X170600000Y-107895000D03*
X165200000Y-107895000D03*
X165200000Y-109165000D03*
X165200000Y-110435000D03*
X165200000Y-111705000D03*
D29*
X165050000Y-78125000D03*
X165050000Y-78775000D03*
X165050000Y-79425000D03*
X165050000Y-80075000D03*
X169450000Y-80075000D03*
X169450000Y-79425000D03*
X169450000Y-78775000D03*
X169450000Y-78125000D03*
D24*
X152450000Y-121155000D03*
X152450000Y-119885000D03*
X152450000Y-118615000D03*
X152450000Y-117345000D03*
X147050000Y-117345000D03*
X147050000Y-118615000D03*
X147050000Y-119885000D03*
X147050000Y-121155000D03*
D30*
X149687500Y-101500000D03*
X137812500Y-101500000D03*
D13*
X134950000Y-114500000D03*
X133050000Y-114500000D03*
D31*
X153500000Y-61250000D03*
X146500000Y-61250000D03*
D32*
X152250000Y-58750000D03*
X147750000Y-58750000D03*
D33*
X163000000Y-61000000D03*
D34*
X160460000Y-61000000D03*
X157920000Y-61000000D03*
D33*
X171000000Y-61000000D03*
D34*
X168460000Y-61000000D03*
X165920000Y-61000000D03*
D22*
X136100000Y-69250000D03*
X133900000Y-69250000D03*
D14*
X169500000Y-132700000D03*
X169500000Y-127300000D03*
D13*
X143450000Y-105250000D03*
X141550000Y-105250000D03*
D23*
X148500000Y-97100000D03*
X148500000Y-94900000D03*
D22*
X133650000Y-88500000D03*
X135850000Y-88500000D03*
D23*
X150000000Y-94900000D03*
X150000000Y-97100000D03*
D22*
X135850000Y-90250000D03*
X133650000Y-90250000D03*
D18*
X157750000Y-72000000D03*
D19*
X160290000Y-72000000D03*
X162830000Y-72000000D03*
X165370000Y-72000000D03*
X167910000Y-72000000D03*
X170450000Y-72000000D03*
D22*
X142850000Y-69250000D03*
X140650000Y-69250000D03*
X142850000Y-70750000D03*
X140650000Y-70750000D03*
X144650000Y-69250000D03*
X146850000Y-69250000D03*
X144650000Y-70750000D03*
X146850000Y-70750000D03*
X159600000Y-66500000D03*
X157400000Y-66500000D03*
X163600000Y-66500000D03*
X161400000Y-66500000D03*
D35*
X133610000Y-57000000D03*
X142590000Y-57000000D03*
X133970000Y-62950000D03*
D36*
X134500000Y-64200000D03*
D37*
X135700000Y-62850000D03*
X140500000Y-62850000D03*
X137700000Y-63550000D03*
X138500000Y-63550000D03*
X136900000Y-63550000D03*
X139300000Y-63550000D03*
X135300000Y-63550000D03*
D38*
X140850000Y-65560000D03*
X140350000Y-65560000D03*
X139850000Y-65560000D03*
X139350000Y-65560000D03*
X138850000Y-65560000D03*
X138350000Y-65560000D03*
X137850000Y-65560000D03*
X137350000Y-65560000D03*
X136850000Y-65560000D03*
X136350000Y-65560000D03*
X135850000Y-65560000D03*
X135350000Y-65560000D03*
D37*
X140900000Y-63550000D03*
X139700000Y-62850000D03*
X138900000Y-62850000D03*
X136500000Y-62850000D03*
X137300000Y-62850000D03*
D39*
X141700000Y-64200000D03*
D35*
X142230000Y-62950000D03*
D11*
X161300000Y-95250000D03*
X161300000Y-97750000D03*
M02*
