G04 #@! TF.FileFunction,Legend,Bot*
%FSLAX46Y46*%
G04 Gerber Fmt 4.6, Leading zero omitted, Abs format (unit mm)*
G04 Created by KiCad (PCBNEW 4.0.3-stable) date 10/17/17 23:13:47*
%MOMM*%
%LPD*%
G01*
G04 APERTURE LIST*
%ADD10C,0.100000*%
%ADD11C,0.120000*%
%ADD12C,0.150000*%
G04 APERTURE END LIST*
D10*
D11*
X163050000Y-132450000D02*
X161550000Y-132450000D01*
X161550000Y-132450000D02*
X161550000Y-131500000D01*
X161550000Y-131500000D02*
X156425000Y-131500000D01*
X163050000Y-122050000D02*
X161550000Y-122050000D01*
X161550000Y-122050000D02*
X161550000Y-123000000D01*
X161550000Y-123000000D02*
X160450000Y-123000000D01*
X141950000Y-122050000D02*
X143450000Y-122050000D01*
X143450000Y-122050000D02*
X143450000Y-122740000D01*
X143450000Y-122740000D02*
X148575000Y-122740000D01*
X141950000Y-132450000D02*
X143450000Y-132450000D01*
X143450000Y-132450000D02*
X143450000Y-131760000D01*
X143450000Y-131760000D02*
X144550000Y-131760000D01*
X144200000Y-116600000D02*
X134600000Y-116600000D01*
X144200000Y-121400000D02*
X134600000Y-121400000D01*
X144200000Y-116600000D02*
X144200000Y-121400000D01*
X144200000Y-111100000D02*
X134600000Y-111100000D01*
X144200000Y-115900000D02*
X134600000Y-115900000D01*
X144200000Y-111100000D02*
X144200000Y-115900000D01*
X160800000Y-121400000D02*
X170400000Y-121400000D01*
X160800000Y-116600000D02*
X170400000Y-116600000D01*
X160800000Y-121400000D02*
X160800000Y-116600000D01*
X149900000Y-120570000D02*
X155100000Y-120570000D01*
X155100000Y-116930000D02*
X149900000Y-116930000D01*
X155750000Y-121000000D02*
X149250000Y-121000000D01*
X155750000Y-121000000D02*
X155750000Y-132200000D01*
X149250000Y-121000000D02*
X149250000Y-132200000D01*
D12*
X170238095Y-133452381D02*
X170238095Y-134261905D01*
X170190476Y-134357143D01*
X170142857Y-134404762D01*
X170047619Y-134452381D01*
X169857142Y-134452381D01*
X169761904Y-134404762D01*
X169714285Y-134357143D01*
X169666666Y-134261905D01*
X169666666Y-133452381D01*
X168666666Y-134452381D02*
X169238095Y-134452381D01*
X168952381Y-134452381D02*
X168952381Y-133452381D01*
X169047619Y-133595238D01*
X169142857Y-133690476D01*
X169238095Y-133738095D01*
X168047619Y-133452381D02*
X167952380Y-133452381D01*
X167857142Y-133500000D01*
X167809523Y-133547619D01*
X167761904Y-133642857D01*
X167714285Y-133833333D01*
X167714285Y-134071429D01*
X167761904Y-134261905D01*
X167809523Y-134357143D01*
X167857142Y-134404762D01*
X167952380Y-134452381D01*
X168047619Y-134452381D01*
X168142857Y-134404762D01*
X168190476Y-134357143D01*
X168238095Y-134261905D01*
X168285714Y-134071429D01*
X168285714Y-133833333D01*
X168238095Y-133642857D01*
X168190476Y-133547619D01*
X168142857Y-133500000D01*
X168047619Y-133452381D01*
X137011905Y-133452381D02*
X137011905Y-134261905D01*
X136964286Y-134357143D01*
X136916667Y-134404762D01*
X136821429Y-134452381D01*
X136630952Y-134452381D01*
X136535714Y-134404762D01*
X136488095Y-134357143D01*
X136440476Y-134261905D01*
X136440476Y-133452381D01*
X135488095Y-133452381D02*
X135964286Y-133452381D01*
X136011905Y-133928571D01*
X135964286Y-133880952D01*
X135869048Y-133833333D01*
X135630952Y-133833333D01*
X135535714Y-133880952D01*
X135488095Y-133928571D01*
X135440476Y-134023810D01*
X135440476Y-134261905D01*
X135488095Y-134357143D01*
X135535714Y-134404762D01*
X135630952Y-134452381D01*
X135869048Y-134452381D01*
X135964286Y-134404762D01*
X136011905Y-134357143D01*
X145657143Y-118457143D02*
X145704762Y-118409524D01*
X145752381Y-118266667D01*
X145752381Y-118171429D01*
X145704762Y-118028571D01*
X145609524Y-117933333D01*
X145514286Y-117885714D01*
X145323810Y-117838095D01*
X145180952Y-117838095D01*
X144990476Y-117885714D01*
X144895238Y-117933333D01*
X144800000Y-118028571D01*
X144752381Y-118171429D01*
X144752381Y-118266667D01*
X144800000Y-118409524D01*
X144847619Y-118457143D01*
X145752381Y-119409524D02*
X145752381Y-118838095D01*
X145752381Y-119123809D02*
X144752381Y-119123809D01*
X144895238Y-119028571D01*
X144990476Y-118933333D01*
X145038095Y-118838095D01*
X144752381Y-120028571D02*
X144752381Y-120123810D01*
X144800000Y-120219048D01*
X144847619Y-120266667D01*
X144942857Y-120314286D01*
X145133333Y-120361905D01*
X145371429Y-120361905D01*
X145561905Y-120314286D01*
X145657143Y-120266667D01*
X145704762Y-120219048D01*
X145752381Y-120123810D01*
X145752381Y-120028571D01*
X145704762Y-119933333D01*
X145657143Y-119885714D01*
X145561905Y-119838095D01*
X145371429Y-119790476D01*
X145133333Y-119790476D01*
X144942857Y-119838095D01*
X144847619Y-119885714D01*
X144800000Y-119933333D01*
X144752381Y-120028571D01*
X145657143Y-113257143D02*
X145704762Y-113209524D01*
X145752381Y-113066667D01*
X145752381Y-112971429D01*
X145704762Y-112828571D01*
X145609524Y-112733333D01*
X145514286Y-112685714D01*
X145323810Y-112638095D01*
X145180952Y-112638095D01*
X144990476Y-112685714D01*
X144895238Y-112733333D01*
X144800000Y-112828571D01*
X144752381Y-112971429D01*
X144752381Y-113066667D01*
X144800000Y-113209524D01*
X144847619Y-113257143D01*
X145752381Y-114209524D02*
X145752381Y-113638095D01*
X145752381Y-113923809D02*
X144752381Y-113923809D01*
X144895238Y-113828571D01*
X144990476Y-113733333D01*
X145038095Y-113638095D01*
X144752381Y-114542857D02*
X144752381Y-115209524D01*
X145752381Y-114780952D01*
X159957143Y-118257143D02*
X160004762Y-118209524D01*
X160052381Y-118066667D01*
X160052381Y-117971429D01*
X160004762Y-117828571D01*
X159909524Y-117733333D01*
X159814286Y-117685714D01*
X159623810Y-117638095D01*
X159480952Y-117638095D01*
X159290476Y-117685714D01*
X159195238Y-117733333D01*
X159100000Y-117828571D01*
X159052381Y-117971429D01*
X159052381Y-118066667D01*
X159100000Y-118209524D01*
X159147619Y-118257143D01*
X159147619Y-118638095D02*
X159100000Y-118685714D01*
X159052381Y-118780952D01*
X159052381Y-119019048D01*
X159100000Y-119114286D01*
X159147619Y-119161905D01*
X159242857Y-119209524D01*
X159338095Y-119209524D01*
X159480952Y-119161905D01*
X160052381Y-118590476D01*
X160052381Y-119209524D01*
X159052381Y-119542857D02*
X159052381Y-120209524D01*
X160052381Y-119780952D01*
X153142857Y-116602381D02*
X153476191Y-116126190D01*
X153714286Y-116602381D02*
X153714286Y-115602381D01*
X153333333Y-115602381D01*
X153238095Y-115650000D01*
X153190476Y-115697619D01*
X153142857Y-115792857D01*
X153142857Y-115935714D01*
X153190476Y-116030952D01*
X153238095Y-116078571D01*
X153333333Y-116126190D01*
X153714286Y-116126190D01*
X152761905Y-115697619D02*
X152714286Y-115650000D01*
X152619048Y-115602381D01*
X152380952Y-115602381D01*
X152285714Y-115650000D01*
X152238095Y-115697619D01*
X152190476Y-115792857D01*
X152190476Y-115888095D01*
X152238095Y-116030952D01*
X152809524Y-116602381D01*
X152190476Y-116602381D01*
X151809524Y-115697619D02*
X151761905Y-115650000D01*
X151666667Y-115602381D01*
X151428571Y-115602381D01*
X151333333Y-115650000D01*
X151285714Y-115697619D01*
X151238095Y-115792857D01*
X151238095Y-115888095D01*
X151285714Y-116030952D01*
X151857143Y-116602381D01*
X151238095Y-116602381D01*
X157638095Y-134152381D02*
X157638095Y-133152381D01*
X157400000Y-133152381D01*
X157257142Y-133200000D01*
X157161904Y-133295238D01*
X157114285Y-133390476D01*
X157066666Y-133580952D01*
X157066666Y-133723810D01*
X157114285Y-133914286D01*
X157161904Y-134009524D01*
X157257142Y-134104762D01*
X157400000Y-134152381D01*
X157638095Y-134152381D01*
X156114285Y-134152381D02*
X156685714Y-134152381D01*
X156400000Y-134152381D02*
X156400000Y-133152381D01*
X156495238Y-133295238D01*
X156590476Y-133390476D01*
X156685714Y-133438095D01*
M02*
