G04 #@! TF.FileFunction,Soldermask,Bot*
%FSLAX46Y46*%
G04 Gerber Fmt 4.6, Leading zero omitted, Abs format (unit mm)*
G04 Created by KiCad (PCBNEW 4.0.3-stable) date 10/17/17 23:13:47*
%MOMM*%
%LPD*%
G01*
G04 APERTURE LIST*
%ADD10C,0.100000*%
%ADD11R,1.700000X1.700000*%
%ADD12O,1.700000X1.700000*%
%ADD13R,4.600000X1.100000*%
%ADD14R,9.400000X10.800000*%
%ADD15C,2.200000*%
%ADD16C,1.700000*%
%ADD17R,4.600000X0.800000*%
%ADD18R,1.800000X1.800000*%
%ADD19C,1.800000*%
%ADD20R,3.750000X2.700000*%
%ADD21O,0.800000X1.400000*%
%ADD22O,0.950000X0.660000*%
%ADD23C,0.650000*%
%ADD24C,0.660000*%
%ADD25R,2.700000X3.200000*%
%ADD26R,3.300000X4.500000*%
G04 APERTURE END LIST*
D10*
X154643000Y-61250000D02*
G75*
G03X154643000Y-61250000I-1143000J0D01*
G01*
X148639000Y-58750000D02*
G75*
G03X148639000Y-58750000I-889000J0D01*
G01*
X153139000Y-58750000D02*
G75*
G03X153139000Y-58750000I-889000J0D01*
G01*
X147643000Y-61250000D02*
G75*
G03X147643000Y-61250000I-1143000J0D01*
G01*
D11*
X153000000Y-107250000D03*
D12*
X153000000Y-109790000D03*
X150460000Y-107250000D03*
X150460000Y-109790000D03*
X147920000Y-107250000D03*
X147920000Y-109790000D03*
D13*
X158725000Y-130650000D03*
X158725000Y-128950000D03*
X158725000Y-127250000D03*
X158725000Y-125550000D03*
X158725000Y-123850000D03*
D14*
X167875000Y-127250000D03*
D15*
X153500000Y-61250000D03*
X146500000Y-61250000D03*
D16*
X152250000Y-58750000D03*
X147750000Y-58750000D03*
D17*
X146275000Y-123440000D03*
X146275000Y-124710000D03*
X146275000Y-125980000D03*
X146275000Y-127250000D03*
X146275000Y-128520000D03*
X146275000Y-129790000D03*
X146275000Y-131060000D03*
D14*
X137125000Y-127250000D03*
D18*
X163000000Y-61000000D03*
D19*
X160460000Y-61000000D03*
X157920000Y-61000000D03*
D18*
X171000000Y-61000000D03*
D19*
X168460000Y-61000000D03*
X165920000Y-61000000D03*
D20*
X142025000Y-119000000D03*
X134475000Y-119000000D03*
X142025000Y-113500000D03*
X134475000Y-113500000D03*
X162975000Y-119000000D03*
X170525000Y-119000000D03*
D11*
X157750000Y-72000000D03*
D12*
X160290000Y-72000000D03*
X162830000Y-72000000D03*
X165370000Y-72000000D03*
X167910000Y-72000000D03*
X170450000Y-72000000D03*
D21*
X133610000Y-57000000D03*
X142590000Y-57000000D03*
X133970000Y-62950000D03*
D22*
X134500000Y-64200000D03*
D23*
X135700000Y-62850000D03*
X140500000Y-62850000D03*
X137700000Y-63550000D03*
X138500000Y-63550000D03*
X136900000Y-63550000D03*
X139300000Y-63550000D03*
X135300000Y-63550000D03*
X140900000Y-63550000D03*
X139700000Y-62850000D03*
X138900000Y-62850000D03*
X136500000Y-62850000D03*
X137300000Y-62850000D03*
D24*
X141700000Y-64200000D03*
D21*
X142230000Y-62950000D03*
D25*
X156450000Y-118750000D03*
X148550000Y-118750000D03*
D26*
X152500000Y-123400000D03*
X152500000Y-132200000D03*
M02*
